solid OpenSCAD_Model
  facet normal -1 0 0
    outer loop
      vertex 0 30.5 0
      vertex 0 25.5 4
      vertex 0 30.5 24
    endloop
  endfacet
  facet normal -1 0 0
    outer loop
      vertex 0 30.5 0
      vertex 0 17 4
      vertex 0 25.5 4
    endloop
  endfacet
  facet normal -1 0 0
    outer loop
      vertex 0 0 0
      vertex 0 17 4
      vertex 0 30.5 0
    endloop
  endfacet
  facet normal -1 0 0
    outer loop
      vertex 0 0 24
      vertex 0 17 4
      vertex 0 0 0
    endloop
  endfacet
  facet normal -1 0 0
    outer loop
      vertex 0 17 4
      vertex 0 0 24
      vertex 0 17 24
    endloop
  endfacet
  facet normal -1 -0 0
    outer loop
      vertex 0 30.5 24
      vertex 0 25.5 4
      vertex 0 25.5 24
    endloop
  endfacet
  facet normal 0 0 1
    outer loop
      vertex 56 25.5 4
      vertex 49 17 4
      vertex 56 17 4
    endloop
  endfacet
  facet normal 0 0 1
    outer loop
      vertex 31.0704 14.3485 4
      vertex 49 17 4
      vertex 31.0704 16.1515 4
    endloop
  endfacet
  facet normal -0 0 1
    outer loop
      vertex 30.0956 17.6684 4
      vertex 49 17 4
      vertex 56 25.5 4
    endloop
  endfacet
  facet normal 0 0 1
    outer loop
      vertex 49 17 4
      vertex 30.0956 17.6684 4
      vertex 31.0704 16.1515 4
    endloop
  endfacet
  facet normal 0 0 1
    outer loop
      vertex 56 25.5 4
      vertex 28.4554 18.4174 4
      vertex 30.0956 17.6684 4
    endloop
  endfacet
  facet normal -0 0 1
    outer loop
      vertex 0 25.5 4
      vertex 28.4554 18.4174 4
      vertex 56 25.5 4
    endloop
  endfacet
  facet normal 0 0 1
    outer loop
      vertex 26.6707 18.1608 4
      vertex 7 17 4
      vertex 26.6707 12.3392 4
    endloop
  endfacet
  facet normal 0 0 1
    outer loop
      vertex 28.4554 18.4174 4
      vertex 0 25.5 4
      vertex 26.6707 18.1608 4
    endloop
  endfacet
  facet normal 0 0 1
    outer loop
      vertex 26.6707 18.1608 4
      vertex 0 25.5 4
      vertex 7 17 4
    endloop
  endfacet
  facet normal 0 0 1
    outer loop
      vertex 7 17 4
      vertex 0 25.5 4
      vertex 0 17 4
    endloop
  endfacet
  facet normal 0 0 1
    outer loop
      vertex 49 17 4
      vertex 31.0704 14.3485 4
      vertex 49 0 4
    endloop
  endfacet
  facet normal -0 0 1
    outer loop
      vertex 30.0956 12.8316 4
      vertex 49 0 4
      vertex 31.0704 14.3485 4
    endloop
  endfacet
  facet normal -0 0 1
    outer loop
      vertex 28.4554 12.0826 4
      vertex 49 0 4
      vertex 30.0956 12.8316 4
    endloop
  endfacet
  facet normal 0 0 1
    outer loop
      vertex 7 0 4
      vertex 28.4554 12.0826 4
      vertex 26.6707 12.3392 4
    endloop
  endfacet
  facet normal 0 0 1
    outer loop
      vertex 7 0 4
      vertex 26.6707 12.3392 4
      vertex 7 17 4
    endloop
  endfacet
  facet normal 0 0 1
    outer loop
      vertex 28.4554 12.0826 4
      vertex 7 0 4
      vertex 49 0 4
    endloop
  endfacet
  facet normal 1 0 0
    outer loop
      vertex 56 17 24
      vertex 56 0 24
      vertex 56 17 4
    endloop
  endfacet
  facet normal 1 0 0
    outer loop
      vertex 56 25.5 4
      vertex 56 30.5 24
      vertex 56 25.5 24
    endloop
  endfacet
  facet normal 1 0 0
    outer loop
      vertex 56 30.5 24
      vertex 56 25.5 4
      vertex 56 30.5 0
    endloop
  endfacet
  facet normal 1 -0 0
    outer loop
      vertex 56 17 4
      vertex 56 30.5 0
      vertex 56 25.5 4
    endloop
  endfacet
  facet normal 1 0 0
    outer loop
      vertex 56 17 4
      vertex 56 0 0
      vertex 56 30.5 0
    endloop
  endfacet
  facet normal 1 0 0
    outer loop
      vertex 56 0 0
      vertex 56 17 4
      vertex 56 0 24
    endloop
  endfacet
  facet normal 0 0 -1
    outer loop
      vertex 28 0 0
      vertex 26.6707 12.3392 0
      vertex 28 12.148 0
    endloop
  endfacet
  facet normal 0 0 -1
    outer loop
      vertex 28 0 0
      vertex 25.308 13.5199 0
      vertex 26.6707 12.3392 0
    endloop
  endfacet
  facet normal 0 0 -1
    outer loop
      vertex 0 0 0
      vertex 25.308 13.5199 0
      vertex 28 0 0
    endloop
  endfacet
  facet normal -0 0 -1
    outer loop
      vertex 25.308 13.5199 0
      vertex 0 0 0
      vertex 24.8 15.25 0
    endloop
  endfacet
  facet normal 0 0 -1
    outer loop
      vertex 26.6707 18.1608 0
      vertex 28 30.5 0
      vertex 28 18.3519 0
    endloop
  endfacet
  facet normal 0 0 -1
    outer loop
      vertex 25.308 16.98 0
      vertex 28 30.5 0
      vertex 26.6707 18.1608 0
    endloop
  endfacet
  facet normal 0 0 -1
    outer loop
      vertex 0 30.5 0
      vertex 25.308 16.98 0
      vertex 24.8 15.25 0
    endloop
  endfacet
  facet normal 0 0 -1
    outer loop
      vertex 0 30.5 0
      vertex 24.8 15.25 0
      vertex 0 0 0
    endloop
  endfacet
  facet normal 0 0 -1
    outer loop
      vertex 25.308 16.98 0
      vertex 0 30.5 0
      vertex 28 30.5 0
    endloop
  endfacet
  facet normal 0 0 -1
    outer loop
      vertex 34 4.06342e-15 0
      vertex 56 0 0
      vertex 34 0 0
    endloop
  endfacet
  facet normal 0 0 -1
    outer loop
      vertex 56 0 0
      vertex 34 4.06342e-15 0
      vertex 56 30.5 0
    endloop
  endfacet
  facet normal -0 0 -1
    outer loop
      vertex 56 30.5 0
      vertex 34 4.06342e-15 0
      vertex 34 30.5 0
    endloop
  endfacet
  facet normal 0 -1 0
    outer loop
      vertex 0 0 24
      vertex 3.80902 0 20.4511
      vertex 7 0 24
    endloop
  endfacet
  facet normal 0 -1 0
    outer loop
      vertex 0 0 24
      vertex 2.69098 0 20.0878
      vertex 3.80902 0 20.4511
    endloop
  endfacet
  facet normal 0 -1 0
    outer loop
      vertex 0 0 24
      vertex 2.69098 0 18.9122
      vertex 2.69098 0 20.0878
    endloop
  endfacet
  facet normal 0 -1 0
    outer loop
      vertex 2.69098 0 18.9122
      vertex 3.80902 0 9.95106
      vertex 3.80902 0 18.5489
    endloop
  endfacet
  facet normal 0 -1 0
    outer loop
      vertex 2.69098 0 9.58778
      vertex 2.69098 0 18.9122
      vertex 0 0 24
    endloop
  endfacet
  facet normal 0 -1 0
    outer loop
      vertex 2.69098 0 18.9122
      vertex 2.69098 0 9.58778
      vertex 3.80902 0 9.95106
    endloop
  endfacet
  facet normal 0 -1 0
    outer loop
      vertex 0 0 0
      vertex 2.69098 0 9.58778
      vertex 0 0 24
    endloop
  endfacet
  facet normal 0 -1 0
    outer loop
      vertex 0 0 0
      vertex 3.80902 0 8.04894
      vertex 2.69098 0 8.41221
    endloop
  endfacet
  facet normal 0 -1 0
    outer loop
      vertex 28 0 0
      vertex 7 0 4
      vertex 0 0 0
    endloop
  endfacet
  facet normal 0 -1 -0
    outer loop
      vertex 3.80902 0 8.04894
      vertex 0 0 0
      vertex 7 0 4
    endloop
  endfacet
  facet normal 0 -1 -0
    outer loop
      vertex 2.69098 0 9.58778
      vertex 0 0 0
      vertex 2.69098 0 8.41221
    endloop
  endfacet
  facet normal 0 -1 0
    outer loop
      vertex 4.5 0 19.5
      vertex 7 0 24
      vertex 3.80902 0 20.4511
    endloop
  endfacet
  facet normal 0 -1 0
    outer loop
      vertex 3.80902 0 9.95106
      vertex 4.5 0 19.5
      vertex 3.80902 0 18.5489
    endloop
  endfacet
  facet normal 0 -1 0
    outer loop
      vertex 4.5 0 9
      vertex 4.5 0 19.5
      vertex 3.80902 0 9.95106
    endloop
  endfacet
  facet normal 0 -1 0
    outer loop
      vertex 4.5 0 19.5
      vertex 4.5 0 9
      vertex 7 0 24
    endloop
  endfacet
  facet normal 0 -1 0
    outer loop
      vertex 4.5 0 9
      vertex 7 0 4
      vertex 7 0 24
    endloop
  endfacet
  facet normal 0 -1 0
    outer loop
      vertex 7 0 4
      vertex 4.5 0 9
      vertex 3.80902 0 8.04894
    endloop
  endfacet
  facet normal 0 -1 0
    outer loop
      vertex 22 0 -10
      vertex 28 0 0
      vertex 22 0 -1.33227e-15
    endloop
  endfacet
  facet normal 0 -1 0
    outer loop
      vertex 34 0 -10
      vertex 28 0 0
      vertex 22 0 -10
    endloop
  endfacet
  facet normal 0 -1 0
    outer loop
      vertex 28 0 0
      vertex 34 0 -10
      vertex 34 0 0
    endloop
  endfacet
  facet normal 0 -1 0
    outer loop
      vertex 49 0 24
      vertex 52.809 0 20.4511
      vertex 56 0 24
    endloop
  endfacet
  facet normal 0 -1 0
    outer loop
      vertex 49 0 24
      vertex 51.691 0 20.0878
      vertex 52.809 0 20.4511
    endloop
  endfacet
  facet normal 0 -1 0
    outer loop
      vertex 49 0 24
      vertex 51.691 0 18.9122
      vertex 51.691 0 20.0878
    endloop
  endfacet
  facet normal 0 -1 0
    outer loop
      vertex 51.691 0 18.9122
      vertex 52.809 0 9.95106
      vertex 52.809 0 18.5489
    endloop
  endfacet
  facet normal 0 -1 0
    outer loop
      vertex 51.691 0 9.58778
      vertex 51.691 0 18.9122
      vertex 49 0 24
    endloop
  endfacet
  facet normal 0 -1 0
    outer loop
      vertex 51.691 0 18.9122
      vertex 51.691 0 9.58778
      vertex 52.809 0 9.95106
    endloop
  endfacet
  facet normal 0 -1 0
    outer loop
      vertex 49 0 4
      vertex 51.691 0 9.58778
      vertex 49 0 24
    endloop
  endfacet
  facet normal 0 -1 -0
    outer loop
      vertex 51.691 0 8.41221
      vertex 49 0 4
      vertex 52.809 0 8.04894
    endloop
  endfacet
  facet normal 0 -1 -0
    outer loop
      vertex 51.691 0 9.58778
      vertex 49 0 4
      vertex 51.691 0 8.41221
    endloop
  endfacet
  facet normal 0 -1 0
    outer loop
      vertex 53.5 0 19.5
      vertex 56 0 24
      vertex 52.809 0 20.4511
    endloop
  endfacet
  facet normal 0 -1 0
    outer loop
      vertex 52.809 0 9.95106
      vertex 53.5 0 19.5
      vertex 52.809 0 18.5489
    endloop
  endfacet
  facet normal 0 -1 0
    outer loop
      vertex 53.5 0 9
      vertex 53.5 0 19.5
      vertex 52.809 0 9.95106
    endloop
  endfacet
  facet normal 0 -1 0
    outer loop
      vertex 53.5 0 19.5
      vertex 53.5 0 9
      vertex 56 0 24
    endloop
  endfacet
  facet normal 0 -1 0
    outer loop
      vertex 7 0 4
      vertex 28 0 0
      vertex 49 0 4
    endloop
  endfacet
  facet normal 0 -1 0
    outer loop
      vertex 34 0 0
      vertex 49 0 4
      vertex 28 0 0
    endloop
  endfacet
  facet normal 0 -1 0
    outer loop
      vertex 53.5 0 9
      vertex 56 0 0
      vertex 56 0 24
    endloop
  endfacet
  facet normal 0 -1 0
    outer loop
      vertex 52.809 0 8.04894
      vertex 56 0 0
      vertex 53.5 0 9
    endloop
  endfacet
  facet normal 0 -1 0
    outer loop
      vertex 49 0 4
      vertex 56 0 0
      vertex 52.809 0 8.04894
    endloop
  endfacet
  facet normal 0 -1 0
    outer loop
      vertex 56 0 0
      vertex 49 0 4
      vertex 34 0 0
    endloop
  endfacet
  facet normal 0 -1 0
    outer loop
      vertex 0 25.5 24
      vertex 17.5 25.5 20.1
      vertex 56 25.5 24
    endloop
  endfacet
  facet normal 0 -1 0
    outer loop
      vertex 0 25.5 24
      vertex 15.615 25.5 19.8014
      vertex 17.5 25.5 20.1
    endloop
  endfacet
  facet normal 0 -1 0
    outer loop
      vertex 0 25.5 24
      vertex 13.9145 25.5 18.935
      vertex 15.615 25.5 19.8014
    endloop
  endfacet
  facet normal 0 -1 0
    outer loop
      vertex 0 25.5 24
      vertex 12.565 25.5 17.5855
      vertex 13.9145 25.5 18.935
    endloop
  endfacet
  facet normal 0 -1 0
    outer loop
      vertex 0 25.5 24
      vertex 11.6986 25.5 15.885
      vertex 12.565 25.5 17.5855
    endloop
  endfacet
  facet normal 0 -1 0
    outer loop
      vertex 0 25.5 24
      vertex 11.682 25.5 15.7803
      vertex 11.6986 25.5 15.885
    endloop
  endfacet
  facet normal 0 -1 0
    outer loop
      vertex 0 25.5 24
      vertex 11.4 25.5 14
      vertex 11.682 25.5 15.7803
    endloop
  endfacet
  facet normal 0 -1 0
    outer loop
      vertex 0 25.5 4
      vertex 11.4 25.5 14
      vertex 0 25.5 24
    endloop
  endfacet
  facet normal 0 -1 -0
    outer loop
      vertex 11.4 25.5 14
      vertex 0 25.5 4
      vertex 11.4166 25.5 13.8953
    endloop
  endfacet
  facet normal 0 -1 -0
    outer loop
      vertex 11.4166 25.5 13.8953
      vertex 0 25.5 4
      vertex 11.6986 25.5 12.115
    endloop
  endfacet
  facet normal 0 -1 -0
    outer loop
      vertex 15.615 25.5 8.19855
      vertex 0 25.5 4
      vertex 17.5 25.5 7.9
    endloop
  endfacet
  facet normal 0 -1 -0
    outer loop
      vertex 13.9145 25.5 9.065
      vertex 0 25.5 4
      vertex 15.615 25.5 8.19855
    endloop
  endfacet
  facet normal 0 -1 -0
    outer loop
      vertex 12.565 25.5 10.4145
      vertex 0 25.5 4
      vertex 13.9145 25.5 9.065
    endloop
  endfacet
  facet normal 0 -1 -0
    outer loop
      vertex 11.6986 25.5 12.115
      vertex 0 25.5 4
      vertex 12.565 25.5 10.4145
    endloop
  endfacet
  facet normal 0 -1 0
    outer loop
      vertex 19.385 25.5 19.8014
      vertex 56 25.5 24
      vertex 17.5 25.5 20.1
    endloop
  endfacet
  facet normal 0 -1 0
    outer loop
      vertex 21.0855 25.5 18.935
      vertex 56 25.5 24
      vertex 19.385 25.5 19.8014
    endloop
  endfacet
  facet normal 0 -1 0
    outer loop
      vertex 22.435 25.5 17.5855
      vertex 56 25.5 24
      vertex 21.0855 25.5 18.935
    endloop
  endfacet
  facet normal 0 -1 0
    outer loop
      vertex 23.3014 25.5 15.885
      vertex 56 25.5 24
      vertex 22.435 25.5 17.5855
    endloop
  endfacet
  facet normal 0 -1 0
    outer loop
      vertex 23.318 25.5 15.7803
      vertex 56 25.5 24
      vertex 23.3014 25.5 15.885
    endloop
  endfacet
  facet normal 0 -1 0
    outer loop
      vertex 23.6 25.5 14
      vertex 56 25.5 24
      vertex 23.318 25.5 15.7803
    endloop
  endfacet
  facet normal 0 -1 0
    outer loop
      vertex 56 25.5 4
      vertex 23.6 25.5 14
      vertex 23.5834 25.5 13.8953
    endloop
  endfacet
  facet normal 0 -1 0
    outer loop
      vertex 56 25.5 4
      vertex 23.5834 25.5 13.8953
      vertex 23.3014 25.5 12.115
    endloop
  endfacet
  facet normal 0 -1 0
    outer loop
      vertex 56 25.5 4
      vertex 23.3014 25.5 12.115
      vertex 22.435 25.5 10.4145
    endloop
  endfacet
  facet normal 0 -1 0
    outer loop
      vertex 56 25.5 4
      vertex 22.435 25.5 10.4145
      vertex 21.0855 25.5 9.065
    endloop
  endfacet
  facet normal 0 -1 0
    outer loop
      vertex 56 25.5 4
      vertex 21.0855 25.5 9.065
      vertex 19.385 25.5 8.19855
    endloop
  endfacet
  facet normal 0 -1 0
    outer loop
      vertex 56 25.5 4
      vertex 17.5 25.5 7.9
      vertex 0 25.5 4
    endloop
  endfacet
  facet normal 0 -1 0
    outer loop
      vertex 23.6 25.5 14
      vertex 56 25.5 4
      vertex 56 25.5 24
    endloop
  endfacet
  facet normal 0 -1 0
    outer loop
      vertex 17.5 25.5 7.9
      vertex 56 25.5 4
      vertex 19.385 25.5 8.19855
    endloop
  endfacet
  facet normal -0 0 1
    outer loop
      vertex 0 17 24
      vertex 7 0 24
      vertex 7 17 24
    endloop
  endfacet
  facet normal 0 0 1
    outer loop
      vertex 7 0 24
      vertex 0 17 24
      vertex 0 0 24
    endloop
  endfacet
  facet normal 1 -0 0
    outer loop
      vertex 7 0 24
      vertex 7 17 4
      vertex 7 17 24
    endloop
  endfacet
  facet normal 1 0 0
    outer loop
      vertex 7 17 4
      vertex 7 0 24
      vertex 7 0 4
    endloop
  endfacet
  facet normal 0 1 0
    outer loop
      vertex 7 17 24
      vertex 3.80902 17 20.4511
      vertex 0 17 24
    endloop
  endfacet
  facet normal 0 1 0
    outer loop
      vertex 7 17 24
      vertex 4.5 17 19.5
      vertex 3.80902 17 20.4511
    endloop
  endfacet
  facet normal 0 1 0
    outer loop
      vertex 4.5 17 19.5
      vertex 3.80902 17 9.95106
      vertex 3.80902 17 18.5489
    endloop
  endfacet
  facet normal 0 1 0
    outer loop
      vertex 4.5 17 9
      vertex 4.5 17 19.5
      vertex 7 17 24
    endloop
  endfacet
  facet normal 0 1 0
    outer loop
      vertex 4.5 17 19.5
      vertex 4.5 17 9
      vertex 3.80902 17 9.95106
    endloop
  endfacet
  facet normal 0 1 0
    outer loop
      vertex 4.5 17 9
      vertex 7 17 4
      vertex 3.80902 17 8.04894
    endloop
  endfacet
  facet normal 0 1 -0
    outer loop
      vertex 7 17 4
      vertex 4.5 17 9
      vertex 7 17 24
    endloop
  endfacet
  facet normal 0 1 -0
    outer loop
      vertex 2.69098 17 20.0878
      vertex 0 17 24
      vertex 3.80902 17 20.4511
    endloop
  endfacet
  facet normal 0 1 -0
    outer loop
      vertex 2.69098 17 18.9122
      vertex 0 17 24
      vertex 2.69098 17 20.0878
    endloop
  endfacet
  facet normal 0 1 -0
    outer loop
      vertex 3.80902 17 9.95106
      vertex 2.69098 17 18.9122
      vertex 3.80902 17 18.5489
    endloop
  endfacet
  facet normal 0 1 0
    outer loop
      vertex 2.69098 17 9.58778
      vertex 2.69098 17 18.9122
      vertex 3.80902 17 9.95106
    endloop
  endfacet
  facet normal 0 1 0
    outer loop
      vertex 2.69098 17 18.9122
      vertex 2.69098 17 9.58778
      vertex 0 17 24
    endloop
  endfacet
  facet normal 0 1 0
    outer loop
      vertex 0 17 4
      vertex 2.69098 17 9.58778
      vertex 2.69098 17 8.41221
    endloop
  endfacet
  facet normal 0 1 0
    outer loop
      vertex 0 17 4
      vertex 3.80902 17 8.04894
      vertex 7 17 4
    endloop
  endfacet
  facet normal 0 1 0
    outer loop
      vertex 2.69098 17 9.58778
      vertex 0 17 4
      vertex 0 17 24
    endloop
  endfacet
  facet normal 0 1 0
    outer loop
      vertex 3.80902 17 8.04894
      vertex 0 17 4
      vertex 2.69098 17 8.41221
    endloop
  endfacet
  facet normal -1 0 0
    outer loop
      vertex 49 0 4
      vertex 49 17 24
      vertex 49 17 4
    endloop
  endfacet
  facet normal -1 -0 0
    outer loop
      vertex 49 17 24
      vertex 49 0 4
      vertex 49 0 24
    endloop
  endfacet
  facet normal -0 0 1
    outer loop
      vertex 49 17 24
      vertex 56 0 24
      vertex 56 17 24
    endloop
  endfacet
  facet normal 0 0 1
    outer loop
      vertex 56 0 24
      vertex 49 17 24
      vertex 49 0 24
    endloop
  endfacet
  facet normal 0 1 0
    outer loop
      vertex 56 17 24
      vertex 52.809 17 20.4511
      vertex 49 17 24
    endloop
  endfacet
  facet normal 0 1 0
    outer loop
      vertex 56 17 24
      vertex 53.5 17 19.5
      vertex 52.809 17 20.4511
    endloop
  endfacet
  facet normal 0 1 0
    outer loop
      vertex 53.5 17 19.5
      vertex 52.809 17 9.95106
      vertex 52.809 17 18.5489
    endloop
  endfacet
  facet normal 0 1 0
    outer loop
      vertex 53.5 17 9
      vertex 53.5 17 19.5
      vertex 56 17 24
    endloop
  endfacet
  facet normal 0 1 0
    outer loop
      vertex 53.5 17 19.5
      vertex 53.5 17 9
      vertex 52.809 17 9.95106
    endloop
  endfacet
  facet normal 0 1 0
    outer loop
      vertex 53.5 17 9
      vertex 56 17 4
      vertex 52.809 17 8.04894
    endloop
  endfacet
  facet normal 0 1 -0
    outer loop
      vertex 56 17 4
      vertex 53.5 17 9
      vertex 56 17 24
    endloop
  endfacet
  facet normal 0 1 -0
    outer loop
      vertex 51.691 17 20.0878
      vertex 49 17 24
      vertex 52.809 17 20.4511
    endloop
  endfacet
  facet normal 0 1 -0
    outer loop
      vertex 51.691 17 18.9122
      vertex 49 17 24
      vertex 51.691 17 20.0878
    endloop
  endfacet
  facet normal 0 1 -0
    outer loop
      vertex 52.809 17 9.95106
      vertex 51.691 17 18.9122
      vertex 52.809 17 18.5489
    endloop
  endfacet
  facet normal 0 1 0
    outer loop
      vertex 51.691 17 9.58778
      vertex 51.691 17 18.9122
      vertex 52.809 17 9.95106
    endloop
  endfacet
  facet normal 0 1 0
    outer loop
      vertex 51.691 17 18.9122
      vertex 51.691 17 9.58778
      vertex 49 17 24
    endloop
  endfacet
  facet normal 0 1 0
    outer loop
      vertex 49 17 4
      vertex 51.691 17 9.58778
      vertex 51.691 17 8.41221
    endloop
  endfacet
  facet normal 0 1 0
    outer loop
      vertex 49 17 4
      vertex 52.809 17 8.04894
      vertex 56 17 4
    endloop
  endfacet
  facet normal 0 1 0
    outer loop
      vertex 51.691 17 9.58778
      vertex 49 17 4
      vertex 49 17 24
    endloop
  endfacet
  facet normal 0 1 0
    outer loop
      vertex 52.809 17 8.04894
      vertex 49 17 4
      vertex 51.691 17 8.41221
    endloop
  endfacet
  facet normal -0 0 1
    outer loop
      vertex 0 30.5 24
      vertex 56 25.5 24
      vertex 56 30.5 24
    endloop
  endfacet
  facet normal 0 0 1
    outer loop
      vertex 56 25.5 24
      vertex 0 30.5 24
      vertex 0 25.5 24
    endloop
  endfacet
  facet normal 0 1 -0
    outer loop
      vertex 34 30.5 -10
      vertex 28 30.5 0
      vertex 34 30.5 0
    endloop
  endfacet
  facet normal 0 1 0
    outer loop
      vertex 22 30.5 -10
      vertex 28 30.5 0
      vertex 34 30.5 -10
    endloop
  endfacet
  facet normal 0 1 0
    outer loop
      vertex 28 30.5 0
      vertex 22 30.5 -10
      vertex 22 30.5 -1.33227e-15
    endloop
  endfacet
  facet normal 0 1 0
    outer loop
      vertex 56 30.5 24
      vertex 17.9706 30.5 19.0782
      vertex 0 30.5 24
    endloop
  endfacet
  facet normal 0 1 0
    outer loop
      vertex 56 30.5 24
      vertex 19.7733 30.5 18.5653
      vertex 17.9706 30.5 19.0782
    endloop
  endfacet
  facet normal 0 1 0
    outer loop
      vertex 56 30.5 24
      vertex 21.2689 30.5 17.4358
      vertex 19.7733 30.5 18.5653
    endloop
  endfacet
  facet normal 0 1 0
    outer loop
      vertex 56 30.5 24
      vertex 22.2556 30.5 15.8423
      vertex 21.2689 30.5 17.4358
    endloop
  endfacet
  facet normal 0 1 0
    outer loop
      vertex 56 30.5 24
      vertex 22.5163 30.5 14.4477
      vertex 22.2556 30.5 15.8423
    endloop
  endfacet
  facet normal 0 1 0
    outer loop
      vertex 56 30.5 24
      vertex 22.6 30.5 14
      vertex 22.5163 30.5 14.4477
    endloop
  endfacet
  facet normal 0 1 -0
    outer loop
      vertex 34 30.5 0
      vertex 22.6 30.5 14
      vertex 56 30.5 24
    endloop
  endfacet
  facet normal 0 1 0
    outer loop
      vertex 22.6 30.5 14
      vertex 34 30.5 0
      vertex 22.3393 30.5 12.6054
    endloop
  endfacet
  facet normal 0 1 0
    outer loop
      vertex 22.3393 30.5 12.6054
      vertex 34 30.5 0
      vertex 22.2556 30.5 12.1577
    endloop
  endfacet
  facet normal 0 1 -0
    outer loop
      vertex 28 30.5 0
      vertex 22.2556 30.5 12.1577
      vertex 34 30.5 0
    endloop
  endfacet
  facet normal 0 1 0
    outer loop
      vertex 22.2556 30.5 12.1577
      vertex 28 30.5 0
      vertex 21.2689 30.5 10.5642
    endloop
  endfacet
  facet normal 0 1 0
    outer loop
      vertex 34 30.5 0
      vertex 56 30.5 24
      vertex 56 30.5 0
    endloop
  endfacet
  facet normal 0 1 -0
    outer loop
      vertex 16.1043 30.5 18.9053
      vertex 0 30.5 24
      vertex 17.9706 30.5 19.0782
    endloop
  endfacet
  facet normal 0 1 -0
    outer loop
      vertex 14.4266 30.5 18.0699
      vertex 0 30.5 24
      vertex 16.1043 30.5 18.9053
    endloop
  endfacet
  facet normal 0 1 -0
    outer loop
      vertex 13.1639 30.5 16.6848
      vertex 0 30.5 24
      vertex 14.4266 30.5 18.0699
    endloop
  endfacet
  facet normal 0 1 -0
    outer loop
      vertex 12.4868 30.5 14.9371
      vertex 0 30.5 24
      vertex 13.1639 30.5 16.6848
    endloop
  endfacet
  facet normal 0 1 -0
    outer loop
      vertex 12.4868 30.5 13.0629
      vertex 0 30.5 24
      vertex 12.4868 30.5 14.9371
    endloop
  endfacet
  facet normal 0 1 0
    outer loop
      vertex 0 30.5 0
      vertex 12.4868 30.5 13.0629
      vertex 13.1639 30.5 11.3152
    endloop
  endfacet
  facet normal 0 1 0
    outer loop
      vertex 0 30.5 0
      vertex 13.1639 30.5 11.3152
      vertex 14.4266 30.5 9.93011
    endloop
  endfacet
  facet normal 0 1 0
    outer loop
      vertex 21.2689 30.5 10.5642
      vertex 28 30.5 0
      vertex 19.7733 30.5 9.43467
    endloop
  endfacet
  facet normal 0 1 0
    outer loop
      vertex 19.7733 30.5 9.43467
      vertex 28 30.5 0
      vertex 17.9706 30.5 8.92175
    endloop
  endfacet
  facet normal 0 1 0
    outer loop
      vertex 17.9706 30.5 8.92175
      vertex 28 30.5 0
      vertex 16.1043 30.5 9.09469
    endloop
  endfacet
  facet normal 0 1 0
    outer loop
      vertex 0 30.5 0
      vertex 16.1043 30.5 9.09469
      vertex 28 30.5 0
    endloop
  endfacet
  facet normal 0 1 0
    outer loop
      vertex 12.4868 30.5 13.0629
      vertex 0 30.5 0
      vertex 0 30.5 24
    endloop
  endfacet
  facet normal 0 1 0
    outer loop
      vertex 16.1043 30.5 9.09469
      vertex 0 30.5 0
      vertex 14.4266 30.5 9.93011
    endloop
  endfacet
  facet normal -0.809017 0 0.587786
    outer loop
      vertex 4.5 17 9
      vertex 3.80902 17 8.04894
      vertex 3.80902 0 8.04894
    endloop
  endfacet
  facet normal -0.809017 3.29739e-08 0.587785
    outer loop
      vertex 4.5 0 9
      vertex 4.5 17 9
      vertex 3.80902 0 8.04894
    endloop
  endfacet
  facet normal 0.309017 0 0.951056
    outer loop
      vertex 2.69098 17 8.41221
      vertex 3.80902 0 8.04894
      vertex 3.80902 17 8.04894
    endloop
  endfacet
  facet normal 0.309017 0 0.951056
    outer loop
      vertex 3.80902 0 8.04894
      vertex 2.69098 17 8.41221
      vertex 2.69098 0 8.41221
    endloop
  endfacet
  facet normal 1 -0 0
    outer loop
      vertex 2.69098 0 9.58778
      vertex 2.69098 17 8.41221
      vertex 2.69098 17 9.58778
    endloop
  endfacet
  facet normal 1 0 0
    outer loop
      vertex 2.69098 17 8.41221
      vertex 2.69098 0 9.58778
      vertex 2.69098 0 8.41221
    endloop
  endfacet
  facet normal -0.809017 -3.29739e-08 -0.587785
    outer loop
      vertex 4.5 17 9
      vertex 4.5 0 9
      vertex 3.80902 17 9.95106
    endloop
  endfacet
  facet normal -0.809017 -0 -0.587786
    outer loop
      vertex 3.80902 17 9.95106
      vertex 4.5 0 9
      vertex 3.80902 0 9.95106
    endloop
  endfacet
  facet normal 0.309017 0 -0.951056
    outer loop
      vertex 2.69098 0 9.58778
      vertex 3.80902 17 9.95106
      vertex 3.80902 0 9.95106
    endloop
  endfacet
  facet normal 0.309017 0 -0.951056
    outer loop
      vertex 3.80902 17 9.95106
      vertex 2.69098 0 9.58778
      vertex 2.69098 17 9.58778
    endloop
  endfacet
  facet normal -0.809017 0 0.587785
    outer loop
      vertex 4.5 17 19.5
      vertex 3.80902 17 18.5489
      vertex 3.80902 0 18.5489
    endloop
  endfacet
  facet normal -0.809017 0 0.587785
    outer loop
      vertex 4.5 0 19.5
      vertex 4.5 17 19.5
      vertex 3.80902 0 18.5489
    endloop
  endfacet
  facet normal 0.309017 0 0.951056
    outer loop
      vertex 2.69098 17 18.9122
      vertex 3.80902 0 18.5489
      vertex 3.80902 17 18.5489
    endloop
  endfacet
  facet normal 0.309017 0 0.951056
    outer loop
      vertex 3.80902 0 18.5489
      vertex 2.69098 17 18.9122
      vertex 2.69098 0 18.9122
    endloop
  endfacet
  facet normal 0.309019 0 -0.951056
    outer loop
      vertex 2.69098 0 20.0878
      vertex 3.80902 17 20.4511
      vertex 3.80902 0 20.4511
    endloop
  endfacet
  facet normal 0.309019 0 -0.951056
    outer loop
      vertex 3.80902 17 20.4511
      vertex 2.69098 0 20.0878
      vertex 2.69098 17 20.0878
    endloop
  endfacet
  facet normal 1 -0 0
    outer loop
      vertex 2.69098 0 20.0878
      vertex 2.69098 17 18.9122
      vertex 2.69098 17 20.0878
    endloop
  endfacet
  facet normal 1 0 0
    outer loop
      vertex 2.69098 17 18.9122
      vertex 2.69098 0 20.0878
      vertex 2.69098 0 18.9122
    endloop
  endfacet
  facet normal -0.809017 -0 -0.587785
    outer loop
      vertex 4.5 17 19.5
      vertex 4.5 0 19.5
      vertex 3.80902 17 20.4511
    endloop
  endfacet
  facet normal -0.809017 -0 -0.587785
    outer loop
      vertex 3.80902 17 20.4511
      vertex 4.5 0 19.5
      vertex 3.80902 0 20.4511
    endloop
  endfacet
  facet normal -0.809017 0 0.587785
    outer loop
      vertex 53.5 17 9
      vertex 52.809 17 8.04894
      vertex 52.809 0 8.04894
    endloop
  endfacet
  facet normal -0.809017 3.29738e-08 0.587785
    outer loop
      vertex 53.5 0 9
      vertex 53.5 17 9
      vertex 52.809 0 8.04894
    endloop
  endfacet
  facet normal 0.309017 0 0.951056
    outer loop
      vertex 51.691 17 8.41221
      vertex 52.809 0 8.04894
      vertex 52.809 17 8.04894
    endloop
  endfacet
  facet normal 0.309017 0 0.951056
    outer loop
      vertex 52.809 0 8.04894
      vertex 51.691 17 8.41221
      vertex 51.691 0 8.41221
    endloop
  endfacet
  facet normal 0.309017 0 -0.951056
    outer loop
      vertex 51.691 0 9.58778
      vertex 52.809 17 9.95106
      vertex 52.809 0 9.95106
    endloop
  endfacet
  facet normal 0.309017 0 -0.951056
    outer loop
      vertex 52.809 17 9.95106
      vertex 51.691 0 9.58778
      vertex 51.691 17 9.58778
    endloop
  endfacet
  facet normal 1 -0 0
    outer loop
      vertex 51.691 0 9.58778
      vertex 51.691 17 8.41221
      vertex 51.691 17 9.58778
    endloop
  endfacet
  facet normal 1 0 0
    outer loop
      vertex 51.691 17 8.41221
      vertex 51.691 0 9.58778
      vertex 51.691 0 8.41221
    endloop
  endfacet
  facet normal -0.809017 -3.29738e-08 -0.587785
    outer loop
      vertex 53.5 17 9
      vertex 53.5 0 9
      vertex 52.809 17 9.95106
    endloop
  endfacet
  facet normal -0.809017 -0 -0.587785
    outer loop
      vertex 52.809 17 9.95106
      vertex 53.5 0 9
      vertex 52.809 0 9.95106
    endloop
  endfacet
  facet normal -0.809017 0 0.587785
    outer loop
      vertex 53.5 17 19.5
      vertex 52.809 17 18.5489
      vertex 52.809 0 18.5489
    endloop
  endfacet
  facet normal -0.809017 0 0.587785
    outer loop
      vertex 53.5 0 19.5
      vertex 53.5 17 19.5
      vertex 52.809 0 18.5489
    endloop
  endfacet
  facet normal 0.309017 0 0.951056
    outer loop
      vertex 51.691 17 18.9122
      vertex 52.809 0 18.5489
      vertex 52.809 17 18.5489
    endloop
  endfacet
  facet normal 0.309017 0 0.951056
    outer loop
      vertex 52.809 0 18.5489
      vertex 51.691 17 18.9122
      vertex 51.691 0 18.9122
    endloop
  endfacet
  facet normal 1 -0 0
    outer loop
      vertex 51.691 0 20.0878
      vertex 51.691 17 18.9122
      vertex 51.691 17 20.0878
    endloop
  endfacet
  facet normal 1 0 0
    outer loop
      vertex 51.691 17 18.9122
      vertex 51.691 0 20.0878
      vertex 51.691 0 18.9122
    endloop
  endfacet
  facet normal -0.809017 -0 -0.587785
    outer loop
      vertex 53.5 17 19.5
      vertex 53.5 0 19.5
      vertex 52.809 17 20.4511
    endloop
  endfacet
  facet normal -0.809017 -0 -0.587785
    outer loop
      vertex 52.809 17 20.4511
      vertex 53.5 0 19.5
      vertex 52.809 0 20.4511
    endloop
  endfacet
  facet normal 0.309019 0 -0.951056
    outer loop
      vertex 51.691 0 20.0878
      vertex 52.809 17 20.4511
      vertex 52.809 0 20.4511
    endloop
  endfacet
  facet normal 0.309019 0 -0.951056
    outer loop
      vertex 52.809 17 20.4511
      vertex 51.691 0 20.0878
      vertex 51.691 17 20.0878
    endloop
  endfacet
  facet normal -2.22045e-16 0 1
    outer loop
      vertex 28 30.5 0
      vertex 26.6707 18.1608 -2.9517e-16
      vertex 28 18.3519 0
    endloop
  endfacet
  facet normal -2.22045e-16 -1.71615e-23 1
    outer loop
      vertex 22 30.5 -1.33227e-15
      vertex 26.6707 18.1608 -2.9517e-16
      vertex 28 30.5 0
    endloop
  endfacet
  facet normal -2.22044e-16 3.13709e-23 1
    outer loop
      vertex 26.6707 18.1608 -2.9517e-16
      vertex 22 30.5 -1.33227e-15
      vertex 25.308 16.98 -5.97746e-16
    endloop
  endfacet
  facet normal -2.22044e-16 5.56346e-23 1
    outer loop
      vertex 25.308 16.98 -5.97746e-16
      vertex 22 30.5 -1.33227e-15
      vertex 24.8 15.25 -7.10543e-16
    endloop
  endfacet
  facet normal -2.22045e-16 0 1
    outer loop
      vertex 28 12.148 0
      vertex 26.6707 12.3392 -2.9517e-16
      vertex 28 0 0
    endloop
  endfacet
  facet normal -2.22044e-16 -3.13709e-23 1
    outer loop
      vertex 22 0 -1.33227e-15
      vertex 26.6707 12.3392 -2.9517e-16
      vertex 25.308 13.5199 -5.97746e-16
    endloop
  endfacet
  facet normal -2.22044e-16 -5.56346e-23 1
    outer loop
      vertex 22 0 -1.33227e-15
      vertex 25.308 13.5199 -5.97746e-16
      vertex 24.8 15.25 -7.10543e-16
    endloop
  endfacet
  facet normal -2.22045e-16 1.71615e-23 1
    outer loop
      vertex 26.6707 12.3392 -2.9517e-16
      vertex 22 0 -1.33227e-15
      vertex 28 0 0
    endloop
  endfacet
  facet normal -2.22045e-16 0 1
    outer loop
      vertex 22 0 -1.33227e-15
      vertex 24.8 15.25 -7.10543e-16
      vertex 22 30.5 -1.33227e-15
    endloop
  endfacet
  facet normal 1 0 0
    outer loop
      vertex 34 30.5 0
      vertex 34 4.06342e-15 0
      vertex 34 30.5 -10
    endloop
  endfacet
  facet normal -1 0 0
    outer loop
      vertex 22 0 -10
      vertex 22 30.5 -1.33227e-15
      vertex 22 30.5 -10
    endloop
  endfacet
  facet normal -1 -0 0
    outer loop
      vertex 22 30.5 -1.33227e-15
      vertex 22 0 -10
      vertex 22 0 -1.33227e-15
    endloop
  endfacet
  facet normal 1 0 0
    outer loop
      vertex 34 0 -10
      vertex 34 4.06342e-15 0
      vertex 34 0 0
    endloop
  endfacet
  facet normal 1 0 0
    outer loop
      vertex 34 4.06342e-15 0
      vertex 34 0 -10
      vertex 34 30.5 -10
    endloop
  endfacet
  facet normal 1.53142e-07 3.1268e-08 -1
    outer loop
      vertex 34 0 -10
      vertex 31.0704 14.3485 -10
      vertex 34 30.5 -10
    endloop
  endfacet
  facet normal 0 0 -1
    outer loop
      vertex 34 0 -10
      vertex 30.0956 12.8316 -10
      vertex 31.0704 14.3485 -10
    endloop
  endfacet
  facet normal 0 -0 -1
    outer loop
      vertex 30.0956 12.8316 -10
      vertex 34 0 -10
      vertex 29.1258 12.3887 -10
    endloop
  endfacet
  facet normal 3.25528e-07 0 -1
    outer loop
      vertex 31.0704 16.1515 -10
      vertex 34 30.5 -10
      vertex 31.0704 14.3485 -10
    endloop
  endfacet
  facet normal 7.84865e-08 5.04402e-08 -1
    outer loop
      vertex 30.0956 17.6684 -10
      vertex 34 30.5 -10
      vertex 31.0704 16.1515 -10
    endloop
  endfacet
  facet normal 2.98007e-08 6.52545e-08 -1
    outer loop
      vertex 28.4554 18.4174 -10
      vertex 34 30.5 -10
      vertex 30.0956 17.6684 -10
    endloop
  endfacet
  facet normal 0 0 -1
    outer loop
      vertex 22 30.5 -10
      vertex 28.4554 18.4174 -10
      vertex 26.8449 18.1859 -10
    endloop
  endfacet
  facet normal 7.94729e-08 4.24603e-08 -1
    outer loop
      vertex 28.4554 18.4174 -10
      vertex 22 30.5 -10
      vertex 34 30.5 -10
    endloop
  endfacet
  facet normal 0 0 -1
    outer loop
      vertex 34 0 -10
      vertex 28.4554 12.0826 -10
      vertex 29.1258 12.3887 -10
    endloop
  endfacet
  facet normal 0 0 -1
    outer loop
      vertex 22 0 -10
      vertex 28.4554 12.0826 -10
      vertex 34 0 -10
    endloop
  endfacet
  facet normal -0 0 -1
    outer loop
      vertex 28.4554 12.0826 -10
      vertex 22 0 -10
      vertex 26.6707 12.3392 -10
    endloop
  endfacet
  facet normal -0 0 -1
    outer loop
      vertex 25.308 13.5199 -10
      vertex 22 0 -10
      vertex 24.8 15.25 -10
    endloop
  endfacet
  facet normal -0 0 -1
    outer loop
      vertex 26.6707 12.3392 -10
      vertex 22 0 -10
      vertex 25.308 13.5199 -10
    endloop
  endfacet
  facet normal 0 0 -1
    outer loop
      vertex 26.6707 18.1608 -10
      vertex 22 30.5 -10
      vertex 26.8449 18.1859 -10
    endloop
  endfacet
  facet normal 0 0 -1
    outer loop
      vertex 25.308 16.98 -10
      vertex 22 30.5 -10
      vertex 26.6707 18.1608 -10
    endloop
  endfacet
  facet normal 0 0 -1
    outer loop
      vertex 24.8 15.25 -10
      vertex 22 30.5 -10
      vertex 25.308 16.98 -10
    endloop
  endfacet
  facet normal 0 0 -1
    outer loop
      vertex 22 30.5 -10
      vertex 24.8 15.25 -10
      vertex 22 0 -10
    endloop
  endfacet
  facet normal 0.959493 -0.281733 0
    outer loop
      vertex 24.8 15.25 -6
      vertex 25.308 16.98 -10
      vertex 25.308 16.98 -6
    endloop
  endfacet
  facet normal 0.959493 -0.281733 0
    outer loop
      vertex 25.308 16.98 -10
      vertex 24.8 15.25 -6
      vertex 24.8 15.25 -10
    endloop
  endfacet
  facet normal 0 -5.91405e-07 -1
    outer loop
      vertex 26.5655 14.4437 -6
      vertex 24.8 15.25 -6
      vertex 26.1 15.25 -6
    endloop
  endfacet
  facet normal 0 5.91404e-07 -1
    outer loop
      vertex 26.5655 16.0563 -6
      vertex 26.1 15.25 -6
      vertex 24.8 15.25 -6
    endloop
  endfacet
  facet normal 0 0 -1
    outer loop
      vertex 30.0956 12.8316 -6
      vertex 29.9 15.25 -6
      vertex 30.0956 17.6684 -6
    endloop
  endfacet
  facet normal 0 0 -1
    outer loop
      vertex 30.0956 12.8316 -6
      vertex 28.95 13.6046 -6
      vertex 29.9 15.25 -6
    endloop
  endfacet
  facet normal 8.71776e-07 1.29202e-06 -1
    outer loop
      vertex 28.95 13.6046 -6
      vertex 30.0956 12.8316 -6
      vertex 28.403 13.6046 -6
    endloop
  endfacet
  facet normal 0 0 -1
    outer loop
      vertex 28.95 16.8954 -6
      vertex 30.0956 17.6684 -6
      vertex 29.9 15.25 -6
    endloop
  endfacet
  facet normal 8.71776e-07 -1.29202e-06 -1
    outer loop
      vertex 30.0956 17.6684 -6
      vertex 28.95 16.8954 -6
      vertex 28.403 16.8954 -6
    endloop
  endfacet
  facet normal 1.39227e-07 -9.68348e-07 -1
    outer loop
      vertex 28.4554 18.4174 -6
      vertex 30.0956 17.6684 -6
      vertex 26.6707 18.1608 -6
    endloop
  endfacet
  facet normal 0 0 -1
    outer loop
      vertex 30.0956 12.8316 -6
      vertex 31.0704 16.1515 -6
      vertex 31.0704 14.3485 -6
    endloop
  endfacet
  facet normal -0 0 -1
    outer loop
      vertex 31.0704 16.1515 -6
      vertex 30.0956 12.8316 -6
      vertex 30.0956 17.6684 -6
    endloop
  endfacet
  facet normal -1 0 0
    outer loop
      vertex 31.0704 14.3485 -10
      vertex 31.0704 16.1515 -6
      vertex 31.0704 16.1515 -10
    endloop
  endfacet
  facet normal -1 -0 0
    outer loop
      vertex 31.0704 16.1515 -6
      vertex 31.0704 14.3485 -10
      vertex 31.0704 14.3485 -6
    endloop
  endfacet
  facet normal -0.415414 -0.909632 0
    outer loop
      vertex 28.4554 18.4174 -10
      vertex 30.0956 17.6684 -6
      vertex 28.4554 18.4174 -6
    endloop
  endfacet
  facet normal -0.415414 -0.909632 -0
    outer loop
      vertex 30.0956 17.6684 -6
      vertex 28.4554 18.4174 -10
      vertex 30.0956 17.6684 -10
    endloop
  endfacet
  facet normal 2.38826e-07 -2.7562e-07 -1
    outer loop
      vertex 26.6707 18.1608 -6
      vertex 30.0956 17.6684 -6
      vertex 25.308 16.98 -6
    endloop
  endfacet
  facet normal 0 -6.16905e-07 -1
    outer loop
      vertex 30.0956 12.8316 -6
      vertex 27.05 13.6046 -6
      vertex 28.403 13.6046 -6
    endloop
  endfacet
  facet normal 2.5491e-07 3.87482e-07 -1
    outer loop
      vertex 25.308 13.5199 -6
      vertex 27.05 13.6046 -6
      vertex 30.0956 12.8316 -6
    endloop
  endfacet
  facet normal 2.66262e-07 1.53726e-07 -1
    outer loop
      vertex 25.308 13.5199 -6
      vertex 26.5655 14.4437 -6
      vertex 27.05 13.6046 -6
    endloop
  endfacet
  facet normal 3.11911e-07 9.15855e-08 -1
    outer loop
      vertex 26.5655 14.4437 -6
      vertex 25.308 13.5199 -6
      vertex 24.8 15.25 -6
    endloop
  endfacet
  facet normal 0 6.16905e-07 -1
    outer loop
      vertex 27.05 16.8954 -6
      vertex 30.0956 17.6684 -6
      vertex 28.403 16.8954 -6
    endloop
  endfacet
  facet normal 2.5491e-07 -3.87482e-07 -1
    outer loop
      vertex 27.05 16.8954 -6
      vertex 25.308 16.98 -6
      vertex 30.0956 17.6684 -6
    endloop
  endfacet
  facet normal 2.66262e-07 -1.53727e-07 -1
    outer loop
      vertex 26.5655 16.0563 -6
      vertex 25.308 16.98 -6
      vertex 27.05 16.8954 -6
    endloop
  endfacet
  facet normal 3.11911e-07 -9.15856e-08 -1
    outer loop
      vertex 25.308 16.98 -6
      vertex 26.5655 16.0563 -6
      vertex 24.8 15.25 -6
    endloop
  endfacet
  facet normal -0.841254 0.540641 0
    outer loop
      vertex 30.0956 12.8316 -10
      vertex 31.0704 14.3485 -6
      vertex 31.0704 14.3485 -10
    endloop
  endfacet
  facet normal -0.841254 0.540641 0
    outer loop
      vertex 31.0704 14.3485 -6
      vertex 30.0956 12.8316 -10
      vertex 30.0956 12.8316 -6
    endloop
  endfacet
  facet normal 0.654861 -0.75575 0
    outer loop
      vertex 25.308 16.98 -10
      vertex 26.6707 18.1608 -6
      vertex 25.308 16.98 -6
    endloop
  endfacet
  facet normal 0.654861 -0.75575 0
    outer loop
      vertex 26.6707 18.1608 -6
      vertex 25.308 16.98 -10
      vertex 26.6707 18.1608 -10
    endloop
  endfacet
  facet normal 2.38826e-07 2.75621e-07 -1
    outer loop
      vertex 30.0956 12.8316 -6
      vertex 26.6707 12.3392 -6
      vertex 25.308 13.5199 -6
    endloop
  endfacet
  facet normal 0.142315 0.989821 -0
    outer loop
      vertex 28.4554 12.0826 -10
      vertex 26.6707 12.3392 -6
      vertex 28.4554 12.0826 -6
    endloop
  endfacet
  facet normal 0.142315 0.989821 0
    outer loop
      vertex 26.6707 12.3392 -6
      vertex 28.4554 12.0826 -10
      vertex 26.6707 12.3392 -10
    endloop
  endfacet
  facet normal 0.65486 0.75575 -0
    outer loop
      vertex 26.6707 12.3392 -10
      vertex 25.308 13.5199 -6
      vertex 26.6707 12.3392 -6
    endloop
  endfacet
  facet normal 0.65486 0.75575 0
    outer loop
      vertex 25.308 13.5199 -6
      vertex 26.6707 12.3392 -10
      vertex 25.308 13.5199 -10
    endloop
  endfacet
  facet normal -0.841254 -0.540641 0
    outer loop
      vertex 31.0704 16.1515 -10
      vertex 30.0956 17.6684 -6
      vertex 30.0956 17.6684 -10
    endloop
  endfacet
  facet normal -0.841254 -0.540641 0
    outer loop
      vertex 30.0956 17.6684 -6
      vertex 31.0704 16.1515 -10
      vertex 31.0704 16.1515 -6
    endloop
  endfacet
  facet normal 0.142318 -0.989821 0
    outer loop
      vertex 26.8449 18.1859 -10
      vertex 26.6707 18.1608 -6
      vertex 26.6707 18.1608 -10
    endloop
  endfacet
  facet normal 0.142314 -0.989821 -1.50834e-07
    outer loop
      vertex 26.6707 18.1608 -6
      vertex 26.8449 18.1859 -10
      vertex 28.4554 18.4174 -6
    endloop
  endfacet
  facet normal 0.142314 -0.989822 0
    outer loop
      vertex 28.4554 18.4174 -6
      vertex 26.8449 18.1859 -10
      vertex 28.4554 18.4174 -10
    endloop
  endfacet
  facet normal 1.39227e-07 9.68347e-07 -1
    outer loop
      vertex 30.0956 12.8316 -6
      vertex 28.4554 12.0826 -6
      vertex 26.6707 12.3392 -6
    endloop
  endfacet
  facet normal -0.415415 0.909632 0
    outer loop
      vertex 29.1258 12.3887 -10
      vertex 30.0956 12.8316 -6
      vertex 30.0956 12.8316 -10
    endloop
  endfacet
  facet normal -0.415415 0.909632 -9.97343e-09
    outer loop
      vertex 30.0956 12.8316 -6
      vertex 29.1258 12.3887 -10
      vertex 28.4554 12.0826 -6
    endloop
  endfacet
  facet normal -0.415415 0.909632 0
    outer loop
      vertex 28.4554 12.0826 -6
      vertex 29.1258 12.3887 -10
      vertex 28.4554 12.0826 -10
    endloop
  endfacet
  facet normal 0.959493 0.281733 0
    outer loop
      vertex 25.308 13.5199 -6
      vertex 24.8 15.25 -10
      vertex 24.8 15.25 -6
    endloop
  endfacet
  facet normal 0.959493 0.281733 0
    outer loop
      vertex 24.8 15.25 -10
      vertex 25.308 13.5199 -6
      vertex 25.308 13.5199 -10
    endloop
  endfacet
  facet normal 0.959493 -0.281733 0
    outer loop
      vertex 24.8 15.25 -7.10543e-16
      vertex 25.308 16.98 -3
      vertex 25.308 16.98 -5.97746e-16
    endloop
  endfacet
  facet normal 0.959493 -0.281733 0
    outer loop
      vertex 25.308 16.98 -3
      vertex 24.8 15.25 -7.10543e-16
      vertex 24.8 15.25 -3
    endloop
  endfacet
  facet normal -1 0 0
    outer loop
      vertex 31.0704 14.3485 -3
      vertex 31.0704 16.1515 0
      vertex 31.0704 16.1515 -3
    endloop
  endfacet
  facet normal -1 -0 0
    outer loop
      vertex 31.0704 16.1515 0
      vertex 31.0704 14.3485 -3
      vertex 31.0704 14.3485 0
    endloop
  endfacet
  facet normal 0 0 1
    outer loop
      vertex 28.4554 18.4174 -3
      vertex 27.05 16.8954 -3
      vertex 28.4554 16.8954 -3
    endloop
  endfacet
  facet normal -0 0 1
    outer loop
      vertex 26.6707 18.1608 -3
      vertex 27.05 16.8954 -3
      vertex 28.4554 18.4174 -3
    endloop
  endfacet
  facet normal -0 0 1
    outer loop
      vertex 25.308 16.98 -3
      vertex 27.05 16.8954 -3
      vertex 26.6707 18.1608 -3
    endloop
  endfacet
  facet normal 0 0 1
    outer loop
      vertex 27.05 16.8954 -3
      vertex 25.308 16.98 -3
      vertex 26.1 15.25 -3
    endloop
  endfacet
  facet normal -0 0 1
    outer loop
      vertex 27.05 13.6046 -3
      vertex 28.4554 12.0826 -3
      vertex 28.4554 13.6046 -3
    endloop
  endfacet
  facet normal 0 0 1
    outer loop
      vertex 27.05 13.6046 -3
      vertex 26.6707 12.3392 -3
      vertex 28.4554 12.0826 -3
    endloop
  endfacet
  facet normal 0 0 1
    outer loop
      vertex 25.308 13.5199 -3
      vertex 27.05 13.6046 -3
      vertex 26.1 15.25 -3
    endloop
  endfacet
  facet normal 0 0 1
    outer loop
      vertex 24.8 15.25 -3
      vertex 26.1 15.25 -3
      vertex 25.308 16.98 -3
    endloop
  endfacet
  facet normal 0 0 1
    outer loop
      vertex 27.05 13.6046 -3
      vertex 25.308 13.5199 -3
      vertex 26.6707 12.3392 -3
    endloop
  endfacet
  facet normal 0 0 1
    outer loop
      vertex 26.1 15.25 -3
      vertex 24.8 15.25 -3
      vertex 25.308 13.5199 -3
    endloop
  endfacet
  facet normal -4.07422e-07 0 1
    outer loop
      vertex 31.0704 16.1515 -3
      vertex 29.9 15.25 -3
      vertex 31.0704 14.3485 -3
    endloop
  endfacet
  facet normal -3.5926e-07 -6.25229e-08 1
    outer loop
      vertex 31.0704 16.1515 -3
      vertex 28.95 16.8954 -3
      vertex 29.9 15.25 -3
    endloop
  endfacet
  facet normal -3.18702e-07 5.30825e-08 1
    outer loop
      vertex 28.4554 18.4174 -3
      vertex 28.95 16.8954 -3
      vertex 31.0704 16.1515 -3
    endloop
  endfacet
  facet normal -4.82049e-07 0 1
    outer loop
      vertex 28.95 16.8954 -3
      vertex 28.4554 18.4174 -3
      vertex 28.4554 16.8954 -3
    endloop
  endfacet
  facet normal -3.5926e-07 6.25229e-08 1
    outer loop
      vertex 28.95 13.6046 -3
      vertex 31.0704 14.3485 -3
      vertex 29.9 15.25 -3
    endloop
  endfacet
  facet normal -3.18702e-07 -5.30825e-08 1
    outer loop
      vertex 28.95 13.6046 -3
      vertex 28.4554 12.0826 -3
      vertex 31.0704 14.3485 -3
    endloop
  endfacet
  facet normal -4.82049e-07 0 1
    outer loop
      vertex 28.4554 12.0826 -3
      vertex 28.95 13.6046 -3
      vertex 28.4554 13.6046 -3
    endloop
  endfacet
  facet normal 0.654861 -0.75575 0
    outer loop
      vertex 25.308 16.98 -3
      vertex 26.6707 18.1608 -2.9517e-16
      vertex 25.308 16.98 -5.97746e-16
    endloop
  endfacet
  facet normal 0.654861 -0.75575 0
    outer loop
      vertex 26.6707 18.1608 -2.9517e-16
      vertex 25.308 16.98 -3
      vertex 26.6707 18.1608 -3
    endloop
  endfacet
  facet normal -0.841254 0.540641 0
    outer loop
      vertex 30.0956 12.8316 -3
      vertex 31.0704 14.3485 0
      vertex 31.0704 14.3485 -3
    endloop
  endfacet
  facet normal -0.841254 0.540641 0
    outer loop
      vertex 31.0704 14.3485 0
      vertex 30.0956 12.8316 -3
      vertex 30.0956 12.8316 0
    endloop
  endfacet
  facet normal 0.959493 0.281733 0
    outer loop
      vertex 25.308 13.5199 -5.97746e-16
      vertex 24.8 15.25 -3
      vertex 24.8 15.25 -7.10543e-16
    endloop
  endfacet
  facet normal 0.959493 0.281733 0
    outer loop
      vertex 24.8 15.25 -3
      vertex 25.308 13.5199 -5.97746e-16
      vertex 25.308 13.5199 -3
    endloop
  endfacet
  facet normal 0.142314 -0.989821 0
    outer loop
      vertex 26.6707 18.1608 -3
      vertex 28 18.3519 0
      vertex 26.6707 18.1608 -2.9517e-16
    endloop
  endfacet
  facet normal 0.142314 -0.989821 -7.50966e-09
    outer loop
      vertex 28.4554 18.4174 -3
      vertex 28 18.3519 0
      vertex 26.6707 18.1608 -3
    endloop
  endfacet
  facet normal 0.142315 -0.989821 0
    outer loop
      vertex 28 18.3519 0
      vertex 28.4554 18.4174 -3
      vertex 28.4554 18.4174 0
    endloop
  endfacet
  facet normal -0.841254 -0.540641 0
    outer loop
      vertex 31.0704 16.1515 -3
      vertex 30.0956 17.6684 0
      vertex 30.0956 17.6684 -3
    endloop
  endfacet
  facet normal -0.841254 -0.540641 0
    outer loop
      vertex 30.0956 17.6684 0
      vertex 31.0704 16.1515 -3
      vertex 31.0704 16.1515 0
    endloop
  endfacet
  facet normal -0.415414 -0.909632 0
    outer loop
      vertex 28.4554 18.4174 0
      vertex 30.0956 17.6684 -3
      vertex 30.0956 17.6684 0
    endloop
  endfacet
  facet normal -0.415414 -0.909632 0
    outer loop
      vertex 30.0956 17.6684 -3
      vertex 28.4554 18.4174 0
      vertex 28.4554 18.4174 -3
    endloop
  endfacet
  facet normal -8.23002e-07 5.28911e-07 1
    outer loop
      vertex 30.0956 12.8316 -3
      vertex 31.0704 14.3485 -3
      vertex 28.4554 12.0826 -3
    endloop
  endfacet
  facet normal 0.65486 0.75575 -0
    outer loop
      vertex 26.6707 12.3392 -3
      vertex 25.308 13.5199 -5.97746e-16
      vertex 26.6707 12.3392 -2.9517e-16
    endloop
  endfacet
  facet normal 0.65486 0.75575 0
    outer loop
      vertex 25.308 13.5199 -5.97746e-16
      vertex 26.6707 12.3392 -3
      vertex 25.308 13.5199 -3
    endloop
  endfacet
  facet normal -8.23001e-07 -5.2891e-07 1
    outer loop
      vertex 31.0704 16.1515 -3
      vertex 30.0956 17.6684 -3
      vertex 28.4554 18.4174 -3
    endloop
  endfacet
  facet normal 0.142315 0.989821 -0
    outer loop
      vertex 28.4554 12.0826 -3
      vertex 28 12.148 0
      vertex 28.4554 12.0826 0
    endloop
  endfacet
  facet normal 0.142315 0.989821 7.27803e-08
    outer loop
      vertex 26.6707 12.3392 -3
      vertex 28 12.148 0
      vertex 28.4554 12.0826 -3
    endloop
  endfacet
  facet normal 0.142315 0.989821 0
    outer loop
      vertex 28 12.148 0
      vertex 26.6707 12.3392 -3
      vertex 26.6707 12.3392 -2.9517e-16
    endloop
  endfacet
  facet normal -0.415415 0.909632 0
    outer loop
      vertex 30.0956 12.8316 -3
      vertex 28.4554 12.0826 0
      vertex 30.0956 12.8316 0
    endloop
  endfacet
  facet normal -0.415415 0.909632 0
    outer loop
      vertex 28.4554 12.0826 0
      vertex 30.0956 12.8316 -3
      vertex 28.4554 12.0826 -3
    endloop
  endfacet
  facet normal 0.866025 -0.5 0
    outer loop
      vertex 27.05 16.8954 -3
      vertex 26.5655 16.0563 -6
      vertex 27.05 16.8954 -6
    endloop
  endfacet
  facet normal 0.866025 -0.5 -9.07498e-08
    outer loop
      vertex 26.1 15.25 -3
      vertex 26.5655 16.0563 -6
      vertex 27.05 16.8954 -3
    endloop
  endfacet
  facet normal 0.866026 -0.5 0
    outer loop
      vertex 26.5655 16.0563 -6
      vertex 26.1 15.25 -3
      vertex 26.1 15.25 -6
    endloop
  endfacet
  facet normal -0.866025 -0.5 0
    outer loop
      vertex 29.9 15.25 -6
      vertex 28.95 16.8954 -3
      vertex 28.95 16.8954 -6
    endloop
  endfacet
  facet normal -0.866025 -0.5 0
    outer loop
      vertex 28.95 16.8954 -3
      vertex 29.9 15.25 -6
      vertex 29.9 15.25 -3
    endloop
  endfacet
  facet normal 0 -1 0
    outer loop
      vertex 28.403 16.8954 -6
      vertex 28.4554 16.8954 -3
      vertex 27.05 16.8954 -3
    endloop
  endfacet
  facet normal 0 -1 0
    outer loop
      vertex 28.403 16.8954 -6
      vertex 27.05 16.8954 -3
      vertex 27.05 16.8954 -6
    endloop
  endfacet
  facet normal 0 -1 -0
    outer loop
      vertex 28.4554 16.8954 -3
      vertex 28.403 16.8954 -6
      vertex 28.95 16.8954 -6
    endloop
  endfacet
  facet normal 0 -1 -0
    outer loop
      vertex 28.95 16.8954 -3
      vertex 28.4554 16.8954 -3
      vertex 28.95 16.8954 -6
    endloop
  endfacet
  facet normal 0.866025 0.5 0
    outer loop
      vertex 26.1 15.25 -3
      vertex 26.5655 14.4437 -6
      vertex 26.1 15.25 -6
    endloop
  endfacet
  facet normal 0.866026 0.5 1.4608e-07
    outer loop
      vertex 27.05 13.6046 -3
      vertex 26.5655 14.4437 -6
      vertex 26.1 15.25 -3
    endloop
  endfacet
  facet normal 0.866026 0.499999 0
    outer loop
      vertex 26.5655 14.4437 -6
      vertex 27.05 13.6046 -3
      vertex 27.05 13.6046 -6
    endloop
  endfacet
  facet normal 0 1 -0
    outer loop
      vertex 28.95 13.6046 -6
      vertex 28.4554 13.6046 -3
      vertex 28.95 13.6046 -3
    endloop
  endfacet
  facet normal 0 1 0
    outer loop
      vertex 28.403 13.6046 -6
      vertex 28.4554 13.6046 -3
      vertex 28.95 13.6046 -6
    endloop
  endfacet
  facet normal 0 1 0
    outer loop
      vertex 28.4554 13.6046 -3
      vertex 28.403 13.6046 -6
      vertex 27.05 13.6046 -3
    endloop
  endfacet
  facet normal 0 1 0
    outer loop
      vertex 27.05 13.6046 -3
      vertex 28.403 13.6046 -6
      vertex 27.05 13.6046 -6
    endloop
  endfacet
  facet normal -0.866026 0.5 0
    outer loop
      vertex 28.95 13.6046 -6
      vertex 29.9 15.25 -3
      vertex 29.9 15.25 -6
    endloop
  endfacet
  facet normal -0.866026 0.5 0
    outer loop
      vertex 29.9 15.25 -3
      vertex 28.95 13.6046 -6
      vertex 28.95 13.6046 -3
    endloop
  endfacet
  facet normal -0.982973 0 0.183751
    outer loop
      vertex 22.3297 27 12.554
      vertex 22.2556 30.5 12.1577
      vertex 22.2556 27 12.1577
    endloop
  endfacet
  facet normal -0.982973 -2.53105e-07 0.183749
    outer loop
      vertex 22.2556 30.5 12.1577
      vertex 22.3297 27 12.554
      vertex 22.3393 30.5 12.6054
    endloop
  endfacet
  facet normal -0.982973 -2.48815e-07 0.183749
    outer loop
      vertex 22.6 27 14
      vertex 22.3393 30.5 12.6054
      vertex 22.3297 27 12.554
    endloop
  endfacet
  facet normal -0.982973 0 0.183749
    outer loop
      vertex 22.3393 30.5 12.6054
      vertex 22.6 27 14
      vertex 22.6 30.5 14
    endloop
  endfacet
  facet normal -0.273663 0 0.961826
    outer loop
      vertex 17.9706 30.5 8.92175
      vertex 19.7733 27 9.43467
      vertex 19.7733 30.5 9.43467
    endloop
  endfacet
  facet normal -0.273663 0 0.961826
    outer loop
      vertex 19.7733 27 9.43467
      vertex 17.9706 30.5 8.92175
      vertex 17.9706 27 8.92175
    endloop
  endfacet
  facet normal 1 -0 0
    outer loop
      vertex 12.4868 27 14.9371
      vertex 12.4868 30.5 13.0629
      vertex 12.4868 30.5 14.9371
    endloop
  endfacet
  facet normal 1 0 0
    outer loop
      vertex 12.4868 30.5 13.0629
      vertex 12.4868 27 14.9371
      vertex 12.4868 27 13.0629
    endloop
  endfacet
  facet normal -0.982974 0 -0.183746
    outer loop
      vertex 22.5259 27 14.3964
      vertex 22.6 30.5 14
      vertex 22.6 27 14
    endloop
  endfacet
  facet normal -0.982973 -2.82573e-07 -0.183749
    outer loop
      vertex 22.6 30.5 14
      vertex 22.5259 27 14.3964
      vertex 22.5163 30.5 14.4477
    endloop
  endfacet
  facet normal 0.0922674 0 -0.995734
    outer loop
      vertex 16.1043 27 18.9053
      vertex 17.9706 30.5 19.0782
      vertex 17.9706 27 19.0782
    endloop
  endfacet
  facet normal 0.0922674 0 -0.995734
    outer loop
      vertex 17.9706 30.5 19.0782
      vertex 16.1043 27 18.9053
      vertex 16.1043 30.5 18.9053
    endloop
  endfacet
  facet normal -0.602635 0 0.798017
    outer loop
      vertex 19.7733 30.5 9.43467
      vertex 21.2689 27 10.5642
      vertex 21.2689 30.5 10.5642
    endloop
  endfacet
  facet normal -0.602635 0 0.798017
    outer loop
      vertex 21.2689 27 10.5642
      vertex 19.7733 30.5 9.43467
      vertex 19.7733 27 9.43467
    endloop
  endfacet
  facet normal -0.850217 0 0.526432
    outer loop
      vertex 21.2689 27 10.5642
      vertex 22.2556 30.5 12.1577
      vertex 21.2689 30.5 10.5642
    endloop
  endfacet
  facet normal -0.850217 0 0.526432
    outer loop
      vertex 22.2556 30.5 12.1577
      vertex 21.2689 27 10.5642
      vertex 22.2556 27 12.1577
    endloop
  endfacet
  facet normal 0.0922684 0 0.995734
    outer loop
      vertex 16.1043 30.5 9.09469
      vertex 17.9706 27 8.92175
      vertex 17.9706 30.5 8.92175
    endloop
  endfacet
  facet normal 0.0922684 0 0.995734
    outer loop
      vertex 17.9706 27 8.92175
      vertex 16.1043 30.5 9.09469
      vertex 16.1043 27 9.09469
    endloop
  endfacet
  facet normal 0.445739 0 0.895163
    outer loop
      vertex 14.4266 30.5 9.93011
      vertex 16.1043 27 9.09469
      vertex 16.1043 30.5 9.09469
    endloop
  endfacet
  facet normal 0.445739 0 0.895163
    outer loop
      vertex 16.1043 27 9.09469
      vertex 14.4266 30.5 9.93011
      vertex 14.4266 27 9.93011
    endloop
  endfacet
  facet normal 0.739009 -0 0.673696
    outer loop
      vertex 13.1639 27 11.3152
      vertex 14.4266 30.5 9.93011
      vertex 13.1639 30.5 11.3152
    endloop
  endfacet
  facet normal 0.739009 0 0.673696
    outer loop
      vertex 14.4266 30.5 9.93011
      vertex 13.1639 27 11.3152
      vertex 14.4266 27 9.93011
    endloop
  endfacet
  facet normal -0.602635 0 -0.798017
    outer loop
      vertex 19.7733 27 18.5653
      vertex 21.2689 30.5 17.4358
      vertex 21.2689 27 17.4358
    endloop
  endfacet
  facet normal -0.602635 0 -0.798017
    outer loop
      vertex 21.2689 30.5 17.4358
      vertex 19.7733 27 18.5653
      vertex 19.7733 30.5 18.5653
    endloop
  endfacet
  facet normal -0.273662 0 -0.961826
    outer loop
      vertex 17.9706 27 19.0782
      vertex 19.7733 30.5 18.5653
      vertex 19.7733 27 18.5653
    endloop
  endfacet
  facet normal -0.273662 0 -0.961826
    outer loop
      vertex 19.7733 30.5 18.5653
      vertex 17.9706 27 19.0782
      vertex 17.9706 30.5 19.0782
    endloop
  endfacet
  facet normal 0.932472 0 -0.361242
    outer loop
      vertex 13.1639 27 16.6848
      vertex 12.4868 30.5 14.9371
      vertex 13.1639 30.5 16.6848
    endloop
  endfacet
  facet normal 0.932472 0 -0.361242
    outer loop
      vertex 12.4868 30.5 14.9371
      vertex 13.1639 27 16.6848
      vertex 12.4868 27 14.9371
    endloop
  endfacet
  facet normal 0.445739 0 -0.895163
    outer loop
      vertex 14.4266 27 18.0699
      vertex 16.1043 30.5 18.9053
      vertex 16.1043 27 18.9053
    endloop
  endfacet
  facet normal 0.445739 0 -0.895163
    outer loop
      vertex 16.1043 30.5 18.9053
      vertex 14.4266 27 18.0699
      vertex 14.4266 30.5 18.0699
    endloop
  endfacet
  facet normal 0.739009 0 -0.673696
    outer loop
      vertex 14.4266 27 18.0699
      vertex 13.1639 30.5 16.6848
      vertex 14.4266 30.5 18.0699
    endloop
  endfacet
  facet normal 0.739009 0 -0.673696
    outer loop
      vertex 13.1639 30.5 16.6848
      vertex 14.4266 27 18.0699
      vertex 13.1639 27 16.6848
    endloop
  endfacet
  facet normal 0.932472 -0 0.361242
    outer loop
      vertex 12.4868 27 13.0629
      vertex 13.1639 30.5 11.3152
      vertex 12.4868 30.5 13.0629
    endloop
  endfacet
  facet normal 0.932472 0 0.361242
    outer loop
      vertex 13.1639 30.5 11.3152
      vertex 12.4868 27 13.0629
      vertex 13.1639 27 11.3152
    endloop
  endfacet
  facet normal -0.850217 0 -0.526432
    outer loop
      vertex 22.2556 27 15.8423
      vertex 21.2689 30.5 17.4358
      vertex 22.2556 30.5 15.8423
    endloop
  endfacet
  facet normal -0.850217 -0 -0.526432
    outer loop
      vertex 21.2689 30.5 17.4358
      vertex 22.2556 27 15.8423
      vertex 21.2689 27 17.4358
    endloop
  endfacet
  facet normal -0.982973 -2.6605e-07 -0.18375
    outer loop
      vertex 22.2556 27 15.8423
      vertex 22.5163 30.5 14.4477
      vertex 22.5259 27 14.3964
    endloop
  endfacet
  facet normal -0.982973 0 -0.183749
    outer loop
      vertex 22.5163 30.5 14.4477
      vertex 22.2556 27 15.8423
      vertex 22.2556 30.5 15.8423
    endloop
  endfacet
  facet normal -0.987688 0 0.156434
    outer loop
      vertex 23.5834 25.5 13.8953
      vertex 23.3014 27 12.115
      vertex 23.3014 25.5 12.115
    endloop
  endfacet
  facet normal -0.987688 3.8678e-08 0.156434
    outer loop
      vertex 23.3014 27 12.115
      vertex 23.5834 25.5 13.8953
      vertex 23.6 27 14
    endloop
  endfacet
  facet normal -0.987688 0 0.156434
    outer loop
      vertex 23.6 25.5 14
      vertex 23.6 27 14
      vertex 23.5834 25.5 13.8953
    endloop
  endfacet
  facet normal 0.156434 0 0.987688
    outer loop
      vertex 15.615 27 8.19855
      vertex 17.5 25.5 7.9
      vertex 17.5 27 7.9
    endloop
  endfacet
  facet normal 0.156434 0 0.987688
    outer loop
      vertex 17.5 25.5 7.9
      vertex 15.615 27 8.19855
      vertex 15.615 25.5 8.19855
    endloop
  endfacet
  facet normal 0.45399 0 0.891007
    outer loop
      vertex 13.9145 27 9.065
      vertex 15.615 25.5 8.19855
      vertex 15.615 27 8.19855
    endloop
  endfacet
  facet normal 0.45399 0 0.891007
    outer loop
      vertex 15.615 25.5 8.19855
      vertex 13.9145 27 9.065
      vertex 13.9145 25.5 9.065
    endloop
  endfacet
  facet normal -0.987688 0 -0.156433
    outer loop
      vertex 23.318 25.5 15.7803
      vertex 23.6 27 14
      vertex 23.6 25.5 14
    endloop
  endfacet
  facet normal -0.987688 -4.42034e-08 -0.156434
    outer loop
      vertex 23.6 27 14
      vertex 23.318 25.5 15.7803
      vertex 23.3014 27 15.885
    endloop
  endfacet
  facet normal 0.156434 0 -0.987688
    outer loop
      vertex 15.615 25.5 19.8014
      vertex 17.5 27 20.1
      vertex 17.5 25.5 20.1
    endloop
  endfacet
  facet normal 0.156434 0 -0.987688
    outer loop
      vertex 17.5 27 20.1
      vertex 15.615 25.5 19.8014
      vertex 15.615 27 19.8014
    endloop
  endfacet
  facet normal -0.707107 0 0.707107
    outer loop
      vertex 21.0855 25.5 9.065
      vertex 22.435 27 10.4145
      vertex 21.0855 27 9.065
    endloop
  endfacet
  facet normal -0.707107 0 0.707107
    outer loop
      vertex 22.435 27 10.4145
      vertex 21.0855 25.5 9.065
      vertex 22.435 25.5 10.4145
    endloop
  endfacet
  facet normal -0.891006 0 0.453991
    outer loop
      vertex 22.435 25.5 10.4145
      vertex 23.3014 27 12.115
      vertex 22.435 27 10.4145
    endloop
  endfacet
  facet normal -0.891006 0 0.453991
    outer loop
      vertex 23.3014 27 12.115
      vertex 22.435 25.5 10.4145
      vertex 23.3014 25.5 12.115
    endloop
  endfacet
  facet normal -0.156435 0 0.987688
    outer loop
      vertex 17.5 27 7.9
      vertex 19.385 25.5 8.19855
      vertex 19.385 27 8.19855
    endloop
  endfacet
  facet normal -0.156435 0 0.987688
    outer loop
      vertex 19.385 25.5 8.19855
      vertex 17.5 27 7.9
      vertex 17.5 25.5 7.9
    endloop
  endfacet
  facet normal -0.707107 0 -0.707107
    outer loop
      vertex 22.435 25.5 17.5855
      vertex 21.0855 27 18.935
      vertex 22.435 27 17.5855
    endloop
  endfacet
  facet normal -0.707107 -0 -0.707107
    outer loop
      vertex 21.0855 27 18.935
      vertex 22.435 25.5 17.5855
      vertex 21.0855 25.5 18.935
    endloop
  endfacet
  facet normal 0.891007 0 -0.45399
    outer loop
      vertex 12.565 25.5 17.5855
      vertex 11.6986 27 15.885
      vertex 12.565 27 17.5855
    endloop
  endfacet
  facet normal 0.891007 0 -0.45399
    outer loop
      vertex 11.6986 27 15.885
      vertex 12.565 25.5 17.5855
      vertex 11.6986 25.5 15.885
    endloop
  endfacet
  facet normal 0.453991 0 -0.891006
    outer loop
      vertex 13.9145 25.5 18.935
      vertex 15.615 27 19.8014
      vertex 15.615 25.5 19.8014
    endloop
  endfacet
  facet normal 0.453991 0 -0.891006
    outer loop
      vertex 15.615 27 19.8014
      vertex 13.9145 25.5 18.935
      vertex 13.9145 27 18.935
    endloop
  endfacet
  facet normal -0.45399 0 0.891007
    outer loop
      vertex 19.385 27 8.19855
      vertex 21.0855 25.5 9.065
      vertex 21.0855 27 9.065
    endloop
  endfacet
  facet normal -0.45399 0 0.891007
    outer loop
      vertex 21.0855 25.5 9.065
      vertex 19.385 27 8.19855
      vertex 19.385 25.5 8.19855
    endloop
  endfacet
  facet normal 0.987688 2.55691e-08 -0.156434
    outer loop
      vertex 11.682 25.5 15.7803
      vertex 11.4 27 14
      vertex 11.6986 27 15.885
    endloop
  endfacet
  facet normal 0.987688 0 -0.156435
    outer loop
      vertex 11.4 27 14
      vertex 11.682 25.5 15.7803
      vertex 11.4 25.5 14
    endloop
  endfacet
  facet normal 0.891007 -0 0.45399
    outer loop
      vertex 11.6986 25.5 12.115
      vertex 12.565 27 10.4145
      vertex 11.6986 27 12.115
    endloop
  endfacet
  facet normal 0.891007 0 0.45399
    outer loop
      vertex 12.565 27 10.4145
      vertex 11.6986 25.5 12.115
      vertex 12.565 25.5 10.4145
    endloop
  endfacet
  facet normal -0.156434 0 -0.987688
    outer loop
      vertex 17.5 25.5 20.1
      vertex 19.385 27 19.8014
      vertex 19.385 25.5 19.8014
    endloop
  endfacet
  facet normal -0.156434 0 -0.987688
    outer loop
      vertex 19.385 27 19.8014
      vertex 17.5 25.5 20.1
      vertex 17.5 27 20.1
    endloop
  endfacet
  facet normal -0.891006 0 -0.453991
    outer loop
      vertex 23.3014 25.5 15.885
      vertex 22.435 27 17.5855
      vertex 23.3014 27 15.885
    endloop
  endfacet
  facet normal -0.891006 -0 -0.453991
    outer loop
      vertex 22.435 27 17.5855
      vertex 23.3014 25.5 15.885
      vertex 22.435 25.5 17.5855
    endloop
  endfacet
  facet normal -0.987688 -0 -0.156434
    outer loop
      vertex 23.3014 27 15.885
      vertex 23.318 25.5 15.7803
      vertex 23.3014 25.5 15.885
    endloop
  endfacet
  facet normal -0.453991 0 -0.891006
    outer loop
      vertex 19.385 25.5 19.8014
      vertex 21.0855 27 18.935
      vertex 21.0855 25.5 18.935
    endloop
  endfacet
  facet normal -0.453991 0 -0.891006
    outer loop
      vertex 21.0855 27 18.935
      vertex 19.385 25.5 19.8014
      vertex 19.385 27 19.8014
    endloop
  endfacet
  facet normal 0.707107 0 -0.707107
    outer loop
      vertex 13.9145 25.5 18.935
      vertex 12.565 27 17.5855
      vertex 13.9145 27 18.935
    endloop
  endfacet
  facet normal 0.707107 0 -0.707107
    outer loop
      vertex 12.565 27 17.5855
      vertex 13.9145 25.5 18.935
      vertex 12.565 25.5 17.5855
    endloop
  endfacet
  facet normal 0.987688 0 -0.156434
    outer loop
      vertex 11.6986 27 15.885
      vertex 11.6986 25.5 15.885
      vertex 11.682 25.5 15.7803
    endloop
  endfacet
  facet normal 0.707107 -0 0.707107
    outer loop
      vertex 12.565 25.5 10.4145
      vertex 13.9145 27 9.065
      vertex 12.565 27 10.4145
    endloop
  endfacet
  facet normal 0.707107 0 0.707107
    outer loop
      vertex 13.9145 27 9.065
      vertex 12.565 25.5 10.4145
      vertex 13.9145 25.5 9.065
    endloop
  endfacet
  facet normal 0.987688 0 0.156434
    outer loop
      vertex 11.4166 25.5 13.8953
      vertex 11.4 27 14
      vertex 11.4 25.5 14
    endloop
  endfacet
  facet normal 0.987688 -3.10945e-08 0.156435
    outer loop
      vertex 11.4166 25.5 13.8953
      vertex 11.6986 27 12.115
      vertex 11.4 27 14
    endloop
  endfacet
  facet normal 0.987688 0 0.156435
    outer loop
      vertex 11.6986 27 12.115
      vertex 11.4166 25.5 13.8953
      vertex 11.6986 25.5 12.115
    endloop
  endfacet
  facet normal 0 -1 0
    outer loop
      vertex 16.1043 27 18.9053
      vertex 17.5 27 20.1
      vertex 15.615 27 19.8014
    endloop
  endfacet
  facet normal 0 -1 0
    outer loop
      vertex 17.5 27 20.1
      vertex 17.9706 27 19.0782
      vertex 19.385 27 19.8014
    endloop
  endfacet
  facet normal 0 -1 0
    outer loop
      vertex 14.4266 27 18.0699
      vertex 15.615 27 19.8014
      vertex 13.9145 27 18.935
    endloop
  endfacet
  facet normal 0 -1 -0
    outer loop
      vertex 17.5 27 20.1
      vertex 16.1043 27 18.9053
      vertex 17.9706 27 19.0782
    endloop
  endfacet
  facet normal 0 -1 -0
    outer loop
      vertex 15.615 27 19.8014
      vertex 14.4266 27 18.0699
      vertex 16.1043 27 18.9053
    endloop
  endfacet
  facet normal 0 -1 0
    outer loop
      vertex 12.565 27 17.5855
      vertex 14.4266 27 18.0699
      vertex 13.9145 27 18.935
    endloop
  endfacet
  facet normal 0 -1 0
    outer loop
      vertex 12.565 27 17.5855
      vertex 13.1639 27 16.6848
      vertex 14.4266 27 18.0699
    endloop
  endfacet
  facet normal 0 -1 0
    outer loop
      vertex 11.6986 27 15.885
      vertex 13.1639 27 16.6848
      vertex 12.565 27 17.5855
    endloop
  endfacet
  facet normal 0 -1 0
    outer loop
      vertex 11.6986 27 15.885
      vertex 12.4868 27 14.9371
      vertex 13.1639 27 16.6848
    endloop
  endfacet
  facet normal 0 -1 0
    outer loop
      vertex 11.4 27 14
      vertex 12.4868 27 14.9371
      vertex 11.6986 27 15.885
    endloop
  endfacet
  facet normal 0 -1 0
    outer loop
      vertex 11.4 27 14
      vertex 12.4868 27 13.0629
      vertex 12.4868 27 14.9371
    endloop
  endfacet
  facet normal 0 -1 0
    outer loop
      vertex 11.6986 27 12.115
      vertex 12.4868 27 13.0629
      vertex 11.4 27 14
    endloop
  endfacet
  facet normal 0 -1 0
    outer loop
      vertex 11.6986 27 12.115
      vertex 13.1639 27 11.3152
      vertex 12.4868 27 13.0629
    endloop
  endfacet
  facet normal 0 -1 0
    outer loop
      vertex 12.565 27 10.4145
      vertex 13.1639 27 11.3152
      vertex 11.6986 27 12.115
    endloop
  endfacet
  facet normal 0 -1 0
    outer loop
      vertex 12.565 27 10.4145
      vertex 14.4266 27 9.93011
      vertex 13.1639 27 11.3152
    endloop
  endfacet
  facet normal 0 -1 0
    outer loop
      vertex 13.9145 27 9.065
      vertex 14.4266 27 9.93011
      vertex 12.565 27 10.4145
    endloop
  endfacet
  facet normal 0 -1 0
    outer loop
      vertex 15.615 27 8.19855
      vertex 14.4266 27 9.93011
      vertex 13.9145 27 9.065
    endloop
  endfacet
  facet normal 0 -1 0
    outer loop
      vertex 14.4266 27 9.93011
      vertex 15.615 27 8.19855
      vertex 16.1043 27 9.09469
    endloop
  endfacet
  facet normal 0 -1 0
    outer loop
      vertex 17.5 27 7.9
      vertex 16.1043 27 9.09469
      vertex 15.615 27 8.19855
    endloop
  endfacet
  facet normal 0 -1 0
    outer loop
      vertex 19.7733 27 18.5653
      vertex 19.385 27 19.8014
      vertex 17.9706 27 19.0782
    endloop
  endfacet
  facet normal 0 -1 0
    outer loop
      vertex 19.385 27 19.8014
      vertex 19.7733 27 18.5653
      vertex 21.0855 27 18.935
    endloop
  endfacet
  facet normal 0 -1 0
    outer loop
      vertex 21.2689 27 17.4358
      vertex 21.0855 27 18.935
      vertex 19.7733 27 18.5653
    endloop
  endfacet
  facet normal 0 -1 0
    outer loop
      vertex 21.0855 27 18.935
      vertex 21.2689 27 17.4358
      vertex 22.435 27 17.5855
    endloop
  endfacet
  facet normal 0 -1 0
    outer loop
      vertex 22.2556 27 15.8423
      vertex 22.435 27 17.5855
      vertex 21.2689 27 17.4358
    endloop
  endfacet
  facet normal 0 -1 -0
    outer loop
      vertex 22.435 27 17.5855
      vertex 22.2556 27 15.8423
      vertex 23.3014 27 15.885
    endloop
  endfacet
  facet normal 0 -1 0
    outer loop
      vertex 22.5259 27 14.3964
      vertex 23.3014 27 15.885
      vertex 22.2556 27 15.8423
    endloop
  endfacet
  facet normal 0 -1 0
    outer loop
      vertex 23.6 27 14
      vertex 22.5259 27 14.3964
      vertex 22.6 27 14
    endloop
  endfacet
  facet normal 0 -1 0
    outer loop
      vertex 22.5259 27 14.3964
      vertex 23.6 27 14
      vertex 23.3014 27 15.885
    endloop
  endfacet
  facet normal 0 -1 0
    outer loop
      vertex 22.3297 27 12.554
      vertex 23.6 27 14
      vertex 22.6 27 14
    endloop
  endfacet
  facet normal 0 -1 0
    outer loop
      vertex 23.3014 27 12.115
      vertex 22.3297 27 12.554
      vertex 22.2556 27 12.1577
    endloop
  endfacet
  facet normal 0 -1 0
    outer loop
      vertex 22.3297 27 12.554
      vertex 23.3014 27 12.115
      vertex 23.6 27 14
    endloop
  endfacet
  facet normal 0 -1 0
    outer loop
      vertex 22.435 27 10.4145
      vertex 22.2556 27 12.1577
      vertex 21.2689 27 10.5642
    endloop
  endfacet
  facet normal 0 -1 0
    outer loop
      vertex 22.2556 27 12.1577
      vertex 22.435 27 10.4145
      vertex 23.3014 27 12.115
    endloop
  endfacet
  facet normal 0 -1 0
    outer loop
      vertex 21.0855 27 9.065
      vertex 21.2689 27 10.5642
      vertex 19.7733 27 9.43467
    endloop
  endfacet
  facet normal 0 -1 -0
    outer loop
      vertex 21.2689 27 10.5642
      vertex 21.0855 27 9.065
      vertex 22.435 27 10.4145
    endloop
  endfacet
  facet normal 0 -1 0
    outer loop
      vertex 19.385 27 8.19855
      vertex 19.7733 27 9.43467
      vertex 17.9706 27 8.92175
    endloop
  endfacet
  facet normal 0 -1 0
    outer loop
      vertex 16.1043 27 9.09469
      vertex 17.5 27 7.9
      vertex 17.9706 27 8.92175
    endloop
  endfacet
  facet normal 0 -1 -0
    outer loop
      vertex 19.7733 27 9.43467
      vertex 19.385 27 8.19855
      vertex 21.0855 27 9.065
    endloop
  endfacet
  facet normal 0 -1 -0
    outer loop
      vertex 17.9706 27 8.92175
      vertex 17.5 27 7.9
      vertex 19.385 27 8.19855
    endloop
  endfacet
  facet normal 0.959493 -0.281732 0
    outer loop
      vertex 24.8 15.25 4
      vertex 25.308 16.98 0
      vertex 25.308 16.98 4
    endloop
  endfacet
  facet normal 0.959493 -0.281732 0
    outer loop
      vertex 25.308 16.98 0
      vertex 24.8 15.25 4
      vertex 24.8 15.25 0
    endloop
  endfacet
  facet normal -1 0 0
    outer loop
      vertex 31.0704 14.3485 0
      vertex 31.0704 16.1515 4
      vertex 31.0704 16.1515 0
    endloop
  endfacet
  facet normal -1 0 0
    outer loop
      vertex 31.0704 14.3485 0
      vertex 31.0704 14.3485 4
      vertex 31.0704 16.1515 4
    endloop
  endfacet
  facet normal 0.142314 -0.989822 0
    outer loop
      vertex 28 18.3519 0
      vertex 26.6707 18.1608 4
      vertex 26.6707 18.1608 0
    endloop
  endfacet
  facet normal 0.142314 -0.989822 2.29481e-08
    outer loop
      vertex 26.6707 18.1608 4
      vertex 28 18.3519 0
      vertex 28.4554 18.4174 4
    endloop
  endfacet
  facet normal 0.142315 -0.989821 0
    outer loop
      vertex 28.4554 18.4174 4
      vertex 28 18.3519 0
      vertex 28.4554 18.4174 0
    endloop
  endfacet
  facet normal 9.38676e-07 -2.7562e-07 -1
    outer loop
      vertex 25.308 16.98 4
      vertex 26.6707 18.1608 4
      vertex 24.8 15.25 4
    endloop
  endfacet
  facet normal 5.09803e-07 0 -1
    outer loop
      vertex 26.6707 18.1608 4
      vertex 26.6707 12.3392 4
      vertex 24.8 15.25 4
    endloop
  endfacet
  facet normal 0.142315 0.989821 0
    outer loop
      vertex 28 12.148 0
      vertex 28.4554 12.0826 4
      vertex 28.4554 12.0826 0
    endloop
  endfacet
  facet normal 0.142315 0.989821 -3.72693e-08
    outer loop
      vertex 28.4554 12.0826 4
      vertex 28 12.148 0
      vertex 26.6707 12.3392 4
    endloop
  endfacet
  facet normal 0.142315 0.989821 0
    outer loop
      vertex 26.6707 12.3392 4
      vertex 28 12.148 0
      vertex 26.6707 12.3392 0
    endloop
  endfacet
  facet normal 0.654861 -0.75575 0
    outer loop
      vertex 25.308 16.98 0
      vertex 26.6707 18.1608 4
      vertex 25.308 16.98 4
    endloop
  endfacet
  facet normal 0.654861 -0.75575 0
    outer loop
      vertex 26.6707 18.1608 4
      vertex 25.308 16.98 0
      vertex 26.6707 18.1608 0
    endloop
  endfacet
  facet normal -0.841254 -0.540641 0
    outer loop
      vertex 31.0704 16.1515 0
      vertex 30.0956 17.6684 4
      vertex 30.0956 17.6684 0
    endloop
  endfacet
  facet normal -0.841254 -0.540641 0
    outer loop
      vertex 30.0956 17.6684 4
      vertex 31.0704 16.1515 0
      vertex 31.0704 16.1515 4
    endloop
  endfacet
  facet normal -0.415414 -0.909632 0
    outer loop
      vertex 28.4554 18.4174 0
      vertex 30.0956 17.6684 4
      vertex 28.4554 18.4174 4
    endloop
  endfacet
  facet normal -0.415414 -0.909632 -0
    outer loop
      vertex 30.0956 17.6684 4
      vertex 28.4554 18.4174 0
      vertex 30.0956 17.6684 0
    endloop
  endfacet
  facet normal 9.38675e-07 2.75619e-07 -1
    outer loop
      vertex 26.6707 12.3392 4
      vertex 25.308 13.5199 4
      vertex 24.8 15.25 4
    endloop
  endfacet
  facet normal 0.959493 0.281732 0
    outer loop
      vertex 25.308 13.5199 4
      vertex 24.8 15.25 0
      vertex 24.8 15.25 4
    endloop
  endfacet
  facet normal 0.959493 0.281732 0
    outer loop
      vertex 24.8 15.25 0
      vertex 25.308 13.5199 4
      vertex 25.308 13.5199 0
    endloop
  endfacet
  facet normal 0.65486 0.75575 -0
    outer loop
      vertex 26.6707 12.3392 0
      vertex 25.308 13.5199 4
      vertex 26.6707 12.3392 4
    endloop
  endfacet
  facet normal 0.65486 0.75575 0
    outer loop
      vertex 25.308 13.5199 4
      vertex 26.6707 12.3392 0
      vertex 25.308 13.5199 0
    endloop
  endfacet
  facet normal -0.841254 0.540641 0
    outer loop
      vertex 30.0956 12.8316 0
      vertex 31.0704 14.3485 4
      vertex 31.0704 14.3485 0
    endloop
  endfacet
  facet normal -0.841254 0.540641 0
    outer loop
      vertex 31.0704 14.3485 4
      vertex 30.0956 12.8316 0
      vertex 30.0956 12.8316 4
    endloop
  endfacet
  facet normal -0.415415 0.909632 0
    outer loop
      vertex 30.0956 12.8316 0
      vertex 28.4554 12.0826 4
      vertex 30.0956 12.8316 4
    endloop
  endfacet
  facet normal -0.415415 0.909632 0
    outer loop
      vertex 28.4554 12.0826 4
      vertex 30.0956 12.8316 0
      vertex 28.4554 12.0826 0
    endloop
  endfacet
endsolid OpenSCAD_Model
